<svg width="129" height="128" viewBox="0 0 129 128" fill="none" xmlns="http://www.w3.org/2000/svg">
<path fill-rule="evenodd" clip-rule="evenodd" d="M60.3031 0.146904C51.8431 0.658082 44.0478 2.71012 36.5826 6.39131L32.9221 8.19642L48.685 8.27237C57.3544 8.31402 71.4549 8.31402 80.0195 8.27237L95.5909 8.19642L91.9093 6.37811C85.1718 3.05091 76.474 0.667467 69.6741 0.285037C67.9829 0.189722 66.0062 0.0700664 65.2815 0.0187433C64.5567 -0.0325797 62.3164 0.0251954 60.3031 0.146904ZM22.6092 15.4995C21.1945 16.6935 19.3039 18.4423 18.4078 19.3854C16.579 21.3108 12.8622 25.7803 12.8622 26.0545C12.8622 26.1525 22.7498 26.2328 34.8343 26.2328H56.8065L58.628 24.6861C59.6298 23.8356 61.3228 22.5158 62.3902 21.7533L64.3309 20.3673H74.6982H85.0655L86.9479 18.4651L88.8306 16.563L97.9211 16.4855L107.012 16.4081L105.166 14.8684L103.321 13.3287H64.2512H25.1816L22.6092 15.4995ZM8.68882 32.3183C6.25996 36.6828 3.62582 42.7492 3.93888 43.2565C4.03288 43.409 12.6311 43.5255 24.2808 43.5319C40.1679 43.5407 44.531 43.4645 44.7952 43.1729C44.9794 42.9694 45.6271 41.813 46.2339 40.6033L47.3374 38.4037L66.2036 38.3283L85.0696 38.253L86.954 36.3487L88.8385 34.4445H104.907H120.975L119.735 32.1716C119.053 30.9214 118.349 29.8017 118.171 29.6832C117.993 29.5647 93.6447 29.4659 64.0638 29.4632L10.2801 29.4588L8.68882 32.3183ZM2.34345 48.019C1.9364 49.0915 0.890644 54.6526 0.70498 56.7334C0.61127 57.7818 0.469243 59.0687 0.389004 59.5928L0.243164 60.546H20.429H40.6151L40.8125 58.8596C40.9211 57.9323 41.0769 56.9425 41.1589 56.6601C41.2989 56.177 42.6015 56.1468 63.1864 56.1468H85.0655L86.952 54.2405L88.8385 52.3343H107.955C120.132 52.3343 127.072 52.2307 127.072 52.0492C127.072 51.8926 126.854 50.7708 126.587 49.5564L126.103 47.3486H64.3505H2.59794L2.34345 48.019ZM0.269817 66.0812C0.269817 68.3597 0.935454 73.7518 1.60461 76.896L1.74517 77.5559H21.9802H42.2149L42.0342 76.896C41.9349 76.5329 41.771 75.7414 41.6699 75.1364L41.486 74.0366H63.2757H85.0655L86.952 72.1303L88.8385 70.224H108.354H127.869L128.053 68.6843C128.155 67.8376 128.239 66.7156 128.241 66.1915L128.243 65.2383H94.6146C76.1188 65.2383 47.3248 65.1507 30.6279 65.0433L0.269817 64.8483V66.0812ZM3.01377 82.8636C3.27324 84.1631 5.36796 89.2966 6.83131 92.2196L8.07941 94.7125L29.0665 94.7878C40.6092 94.8292 50.0535 94.789 50.0535 94.699C50.0535 94.6086 49.724 94.0491 49.3214 93.4558C48.9187 92.8622 48.5893 92.2753 48.5893 92.1516C48.5893 92.0278 56.7963 91.9264 66.8274 91.9264H85.0655L86.9496 90.0224L88.8341 88.1185L106.269 88.0428L123.704 87.9671L124.491 85.7676C124.924 84.5578 125.286 83.4692 125.296 83.3481C125.307 83.2269 107.006 83.1281 84.6288 83.1281C44.2004 83.1281 43.9421 83.1243 43.7573 82.5416C43.5737 81.9623 43.3143 81.955 23.2019 81.955H2.83221L3.01377 82.8636ZM12.1543 101.238C14.2962 104.281 17.4256 107.897 19.7185 109.978L21.7939 111.863L46.1001 111.853L70.4062 111.844L68.8331 111.049C67.9677 110.612 67.2429 110.148 67.2224 110.019C67.2019 109.889 71.2045 109.794 76.1176 109.807L85.0503 109.831L86.9444 107.917L88.8385 106.004H100.741H112.644L114.44 103.735C115.428 102.487 116.237 101.365 116.237 101.242C116.237 101.119 102.556 101.018 85.8354 101.018H55.4342L54.5926 100.138L53.751 99.2582H32.2558H10.7607L12.1543 101.238ZM29.5543 117.796C45.8851 128.285 65.9075 130.831 84.3752 124.768C88.3658 123.457 95.6618 119.982 98.7823 117.906L100.803 116.561L64.2266 116.568L27.6508 116.574L29.5543 117.796Z" fill="#36639C"/>
</svg>
