<svg width="75" height="75" viewBox="0 0 75 75" fill="none" xmlns="http://www.w3.org/2000/svg">
<path fill-rule="evenodd" clip-rule="evenodd" d="M36.1005 0.0549487C33.0216 0.246152 30.1847 1.01371 27.468 2.39063L26.1358 3.06582L31.8724 3.09423C35.0274 3.10981 40.1589 3.10981 43.2758 3.09423L48.9426 3.06582L47.6028 2.38569C45.1508 1.14117 41.9855 0.249662 39.5108 0.106616C38.8954 0.0709645 38.176 0.0262079 37.9122 0.00701083C37.6485 -0.0121862 36.8332 0.00942418 36.1005 0.0549487ZM22.3827 5.79751C21.8678 6.24409 21.1798 6.89821 20.8537 7.251C20.1881 7.97117 18.8355 9.64296 18.8355 9.74552C18.8355 9.78216 22.4338 9.81222 26.8317 9.81222H34.828L35.4909 9.23367C35.8554 8.91555 36.4716 8.42191 36.86 8.1367L37.5663 7.61827H41.3392H45.1122L45.7972 6.90677L46.4824 6.19527L49.7906 6.16631L53.099 6.13735L52.4274 5.56144L51.7558 4.98553H37.5373H23.3188L22.3827 5.79751ZM17.3167 12.0884C16.4328 13.721 15.4741 15.9901 15.588 16.1798C15.6223 16.2369 18.7514 16.2804 22.991 16.2828C28.7727 16.2861 30.3606 16.2576 30.4567 16.1486C30.5238 16.0724 30.7595 15.6399 30.9803 15.1874L31.3819 14.3647L38.2478 14.3365L45.1136 14.3083L45.7994 13.596L46.4852 12.8838H52.3329H58.1806L57.7291 12.0336C57.4809 11.566 57.2247 11.1471 57.16 11.1028C57.0952 11.0585 48.2343 11.0215 37.4691 11.0205L17.8958 11.0189L17.3167 12.0884ZM15.0074 17.9612C14.8593 18.3624 14.4787 20.4425 14.4111 21.2208C14.377 21.6129 14.3254 22.0943 14.2962 22.2903L14.2431 22.6468H21.5892H28.9355L29.0073 22.0161C29.0469 21.6692 29.1036 21.299 29.1334 21.1933C29.1843 21.0127 29.6584 21.0014 37.1498 21.0014H45.1122L45.7987 20.2883L46.4852 19.5753H53.4423C57.8737 19.5753 60.3993 19.5366 60.3993 19.4687C60.3993 19.4101 60.3201 18.9905 60.2231 18.5362L60.0468 17.7104H37.5734H15.1L15.0074 17.9612ZM14.2528 24.7173C14.2528 25.5695 14.495 27.5864 14.7385 28.7625L14.7897 29.0093H22.1538H29.5177L29.4519 28.7625C29.4158 28.6267 29.3561 28.3306 29.3194 28.1043L29.2524 27.6929H37.1823H45.1122L45.7987 26.9799L46.4852 26.2669H53.5873H60.6893L60.7566 25.6909C60.7936 25.3742 60.8243 24.9545 60.8247 24.7585L60.8256 24.402H48.5873C41.8562 24.402 31.3773 24.3692 25.3009 24.3291L14.2528 24.2561V24.7173ZM15.2514 30.9946C15.3458 31.4807 16.1081 33.4008 16.6407 34.4942L17.0949 35.4266L24.7326 35.4548C28.9334 35.4703 32.3704 35.4552 32.3704 35.4216C32.3704 35.3878 32.2505 35.1785 32.1039 34.9566C31.9574 34.7345 31.8375 34.515 31.8375 34.4687C31.8375 34.4224 34.8242 34.3845 38.4748 34.3845H45.1122L45.7978 33.6723L46.4837 32.9602L52.8286 32.9319L59.1737 32.9036L59.4601 32.0808C59.6176 31.6283 59.7496 31.2211 59.7532 31.1758C59.7569 31.1305 53.0969 31.0936 44.9532 31.0936C30.2403 31.0936 30.1463 31.0921 30.079 30.8742C30.0122 30.6575 29.9178 30.6548 22.5984 30.6548H15.1853L15.2514 30.9946ZM68.6343 36.9918C68.4489 38.0012 68.143 39.6664 67.9548 40.6921C67.7666 41.7178 67.6024 42.5711 67.59 42.5885C67.5626 42.6266 66.9267 42.6909 65.7813 42.7712C65.3124 42.8041 63.2742 42.9552 61.2519 43.1069C59.2297 43.2586 57.059 43.4142 56.4281 43.4528C55.7972 43.4915 55.2986 43.5412 55.3201 43.5633C55.3417 43.5855 56.3374 43.7022 57.5329 43.8226C58.7285 43.9431 60.0903 44.0881 60.5592 44.1449C61.0281 44.2018 61.8914 44.3 62.4775 44.3636C66.2979 44.777 67.586 44.9263 67.6181 44.9595C67.6383 44.9803 67.9523 47.2249 68.3158 49.9476C68.6793 52.6703 69.0014 54.8979 69.0314 54.8979C69.0615 54.8979 69.3976 52.6712 69.7784 49.9497L70.4706 45.0013L72.1225 44.4627C73.031 44.1664 74.0376 43.844 74.3594 43.7462L74.9444 43.5682L72.7166 43.1136C71.2229 42.8086 70.4622 42.6059 70.4076 42.4981C70.3627 42.4098 70.0513 40.7579 69.7154 38.8272C69.3795 36.8966 69.0748 35.2807 69.0382 35.2366C69.0016 35.1924 68.8199 35.9822 68.6343 36.9918ZM18.5779 37.8674C19.3574 39.0056 20.4962 40.3581 21.3307 41.1367L22.086 41.8415L30.9316 41.838L39.7773 41.8346L39.2047 41.5372C38.8898 41.3738 38.6261 41.2003 38.6186 41.1518C38.6111 41.1033 40.0678 41.0678 41.8558 41.0727L45.1066 41.0817L45.7959 40.3658L46.4852 39.65H50.8171H55.1488L55.8025 38.8013C56.162 38.3347 56.4561 37.9151 56.4561 37.8689C56.4561 37.8228 51.4774 37.7851 45.3923 37.7851H34.3286L34.0223 37.456L33.716 37.1269H25.8933H18.0707L18.5779 37.8674ZM24.9102 44.061C30.8534 47.9841 38.1401 48.9365 44.861 46.6685C46.3132 46.1784 48.9684 44.8787 50.1041 44.1019L50.8393 43.5991L37.5283 43.6014L24.2175 43.6037L24.9102 44.061ZM5.35385 61.1114C3.73477 61.4634 2.17517 62.5247 1.20993 63.9311C-0.15763 65.9237 -0.385592 68.692 0.626648 71.0138C2.07755 74.3418 6.39646 75.9494 9.76644 74.4159C10.4145 74.121 11.4637 73.4198 11.5335 73.2349C11.5641 73.154 11.5005 72.9566 11.3921 72.7961C11.2837 72.6357 10.8523 71.8873 10.4335 71.1332C10.0147 70.379 9.62949 69.6948 9.57759 69.6127C9.50512 69.4983 9.37531 69.5838 9.02191 69.9785C8.32439 70.7574 7.86665 70.9648 6.84588 70.9648C5.8621 70.9648 5.39232 70.7648 4.75053 70.073C4.20796 69.4879 3.99918 68.921 3.98949 68.0068C3.97627 66.7525 4.57447 65.8116 5.71737 65.2889C6.69679 64.8409 8.07756 65.0836 8.84308 65.8382C9.00358 65.9965 9.15428 66.1049 9.17783 66.0791C9.20138 66.0533 9.65699 65.2189 10.1903 64.2249L11.1599 62.4176L10.6046 62.0572C9.09065 61.0746 7.1395 60.7232 5.35385 61.1114ZM17.6099 61.1001C17.1996 61.1914 16.4562 61.4694 15.958 61.7177C15.2323 62.0795 14.8825 62.3462 14.1995 63.0587C12.8197 64.4979 12.2806 65.8969 12.2921 68.0088C12.3018 69.7855 12.7035 71.0482 13.6725 72.3467C15.255 74.4673 18.398 75.4924 21.0512 74.7534C22.1832 74.4381 23.5066 73.6369 24.2373 72.8245C24.897 72.0912 25.5662 70.8032 25.8037 69.8098C26.0239 68.8892 26.0284 67.1111 25.8127 66.2472C25.0605 63.2342 22.4905 61.1281 19.3884 60.9825C18.7001 60.9502 18.1071 60.9894 17.6099 61.1001ZM68.8576 61.0951C66.2548 61.6778 64.2807 63.5898 63.6515 66.1375C63.4171 67.0865 63.4399 68.9221 63.6991 69.965C64.035 71.3168 64.9504 72.6855 66.1543 73.636C67.1205 74.3988 68.8899 74.9757 70.3107 74.991C71.457 75.0034 72.29 74.8271 73.267 74.3654C74.0407 73.9997 75 73.3599 75 73.2096C75 73.075 72.9983 69.5505 72.9037 69.5184C72.855 69.5019 72.7193 69.6403 72.6021 69.826C72.1671 70.515 71.1932 71.0235 70.3083 71.0235C68.6753 71.0235 67.4365 69.7207 67.4343 68.0009C67.432 66.2714 68.6188 65.0666 70.3166 65.0751C71.0927 65.079 71.8147 65.3589 72.2341 65.8183C72.369 65.9662 72.5149 66.0871 72.5583 66.0871C72.6017 66.0871 73.0723 65.2652 73.6042 64.2607C74.7178 62.1575 74.7412 62.3915 73.3481 61.7009C71.9087 60.9874 70.3052 60.771 68.8576 61.0951ZM27.3814 63.391C27.1359 64.4423 26.9351 65.3431 26.9351 65.393C26.935 65.4429 27.6304 65.4738 28.4804 65.4615L30.0257 65.4392V70.0962V74.7532H32.0506H34.0756V70.1576C34.0756 66.0683 34.0941 65.5547 34.2442 65.4955C34.3369 65.4588 34.9824 65.4289 35.6786 65.4289H36.9445L37.0533 65.0175C37.2522 64.2662 37.9122 61.5893 37.9122 61.5341C37.9122 61.5042 35.6432 61.4798 32.87 61.4798H27.8276L27.3814 63.391ZM40.0995 61.6169C39.9979 61.9329 39.1911 65.3102 39.1911 65.4194C39.1911 65.4876 39.3965 65.5386 39.6707 65.5386H40.1503V70.1459V74.7532H43.9828H47.8154L47.9327 74.287C47.9973 74.0306 48.2151 73.2216 48.4165 72.4894C48.6179 71.7571 48.7828 71.1277 48.7828 71.0907C48.7828 71.0538 47.7277 71.0235 46.4381 71.0235C44.6401 71.0235 44.0906 70.9916 44.0809 70.8864C44.0741 70.811 44.0653 70.5765 44.0613 70.3653L44.0542 69.9813L45.8635 69.9514L47.6729 69.9216L48.0303 68.4156C48.2269 67.5874 48.4093 66.8492 48.4359 66.775C48.4729 66.6716 47.9678 66.6332 46.2738 66.6105L44.0635 66.5807L44.0522 66.0871L44.041 65.5934L46.3853 65.5636L48.7295 65.5337L49.2236 63.5068L49.7176 61.4798H44.9307C41.1956 61.4798 40.1339 61.51 40.0995 61.6169ZM52.0963 61.8912C51.878 62.7456 51.234 65.42 51.234 65.4721C51.234 65.5021 51.452 65.5417 51.7187 65.56L52.2033 65.5934L52.196 70.1733L52.1888 74.7532H54.1625H56.1364L56.1442 72.4221L56.1519 70.091L57.2774 72.4221L58.4028 74.7532H60.7979C62.9775 74.7532 63.187 74.737 63.1257 74.5726C63.0887 74.4734 62.5225 73.449 61.8675 72.2964C60.038 69.0768 59.3336 67.8187 59.3336 67.7703C59.3336 67.7374 62.3278 62.053 62.6037 61.5621C62.6292 61.5168 61.6478 61.4798 60.4228 61.4798H58.1955L57.534 63.0674C57.1701 63.9407 56.7099 65.0144 56.5113 65.4534L56.1502 66.2516L56.1433 63.8657L56.1364 61.4798H54.1689H52.2014L52.0963 61.8912ZM20.4723 65.412C21.4908 65.9709 22.134 67.1769 21.9942 68.2654C21.8934 69.0505 21.8847 69.0791 21.6053 69.5444C21.2575 70.1239 20.9178 70.4326 20.2742 70.7547C18.9109 71.4368 17.2496 70.8076 16.5209 69.333C15.9469 68.1715 16.26 66.5498 17.2056 65.7868C17.7498 65.3477 18.0173 65.2125 18.5474 65.1083C19.1987 64.9804 19.8821 65.0881 20.4723 65.412Z" fill="#013089"/>
</svg>
