<svg width="20" height="26" viewBox="0 0 20 26" fill="none" xmlns="http://www.w3.org/2000/svg">
<path d="M17.638 2.86307H13.75V3.68938C13.75 5.28391 12.4414 6.58149 10.8334 6.58149H9.16669C7.55862 6.58149 6.25002 5.28391 6.25002 3.68938V2.86307H2.36209C1.05754 2.86307 0 3.9117 0 5.20521V23.6577C0 24.9513 1.05754 25.9999 2.36209 25.9999H17.638C18.9425 25.9999 20 24.9513 20 23.6577V5.20521C20.0001 3.9117 18.9425 2.86307 17.638 2.86307ZM17.5 23.5209H2.50001V7.61436H17.5V23.5209Z" fill="#36639C"/>
<path d="M9.17446 5.78422H10.8411C11.9899 5.78422 12.9245 4.85745 12.9245 3.71843V2.06579C12.9245 0.926772 11.9898 0 10.8411 0H9.17446C8.02577 0 7.09113 0.926772 7.09113 2.06579V3.71843C7.09113 4.85739 8.02577 5.78422 9.17446 5.78422ZM8.7578 2.06579C8.7578 1.83743 8.94416 1.65263 9.17446 1.65263H10.8411C11.0715 1.65263 11.2578 1.83743 11.2578 2.06579V2.89211C11.2578 3.12047 11.0715 3.30527 10.8411 3.30527H9.17446C8.94416 3.30527 8.7578 3.12047 8.7578 2.89211V2.06579Z" fill="#36639C"/>
<path d="M9.97719 9.10999C11.0288 9.10999 11.8813 9.95397 11.8813 10.9951C11.8813 12.0361 11.0288 12.8801 9.97719 12.8801C8.92557 12.8801 8.07304 12.0361 8.07304 10.9951C8.07304 9.95397 8.92557 9.10999 9.97719 9.10999ZM6.90911 16.1752C6.90911 16.0337 7.001 15.9376 7.14904 15.9376C7.29709 15.9376 7.38897 16.0286 7.38897 16.1752V21.4412H12.6216V16.1752C12.6216 16.0337 12.7134 15.9376 12.8615 15.9376C13.0044 15.9376 13.1014 16.0286 13.1014 16.1752V21.4412H14.7656V15.7001C14.7656 14.4013 13.6936 13.3451 12.3867 13.3451H11.9069L10.5081 15.498L10.3396 13.8858L10.5694 13.34H9.53816L9.76788 13.8858L9.58921 15.5081L8.19045 13.3451H7.62891C6.31694 13.3451 5.25 14.4063 5.25 15.7001V21.4412H6.91421V16.1752H6.90911Z" fill="#36639C"/>
</svg>
