<svg width="20" height="26" viewBox="0 0 20 26" fill="none" xmlns="http://www.w3.org/2000/svg">
<path d="M6.8547 21.0476C7.6868 21.0476 10 21.0476 10 21.0476C10 21.0476 12.3129 21.0476 13.1454 21.0476C13.9771 21.0476 14.3547 19.849 13.8733 19.0018C13.5108 18.3634 12.9167 17.6396 11.9499 17.2285C11.3966 17.6122 10.7243 17.8379 10 17.8379C9.27493 17.8379 8.60355 17.6122 8.05015 17.2285C7.083 17.6396 6.4893 18.3634 6.12636 19.0018C5.6454 19.849 6.02259 21.0476 6.8547 21.0476Z" fill="#36639C"/>
<path d="M9.90178 16.7378C11.2612 16.7378 12.3626 15.7639 12.3626 14.5613V14.0399C12.3626 12.8374 11.2612 11.8628 9.90178 11.8628C8.54237 11.8628 7.44067 12.8374 7.44067 14.0399V14.5613C7.44067 15.7639 8.54237 16.7378 9.90178 16.7378Z" fill="#36639C"/>
<path d="M17.638 2.88898H13.75V3.71438C13.75 5.30713 12.4414 6.60327 10.8334 6.60327H9.16669C7.55862 6.60327 6.25002 5.30713 6.25002 3.71438V2.88898H2.36209C1.05754 2.88898 0 3.93644 0 5.22852V23.6605C0 24.9526 1.05754 26.0001 2.36209 26.0001H17.638C18.9425 26.0001 20 24.9526 20 23.6605V5.22852C20.0001 3.93644 18.9425 2.88898 17.638 2.88898ZM17.5 23.5239H2.50001V7.63499H17.5V23.5239Z" fill="#36639C"/>
<path d="M9.16671 5.77779H10.8334C11.9821 5.77779 12.9167 4.85205 12.9167 3.71429V2.0635C12.9167 0.925742 11.9821 0 10.8334 0H9.16671C8.01802 0 7.08337 0.925742 7.08337 2.0635V3.71429C7.08337 4.852 8.01802 5.77779 9.16671 5.77779ZM8.75005 2.0635C8.75005 1.83539 8.93641 1.6508 9.16671 1.6508H10.8334C11.0637 1.6508 11.2501 1.83539 11.2501 2.0635V2.8889C11.2501 3.117 11.0637 3.30159 10.8334 3.30159H9.16671C8.93641 3.30159 8.75005 3.117 8.75005 2.8889V2.0635Z" fill="#36639C"/>
</svg>
