<svg width="46" height="46" viewBox="0 0 46 46" fill="none" xmlns="http://www.w3.org/2000/svg">
<path d="M23 6.22916C22.2061 6.22916 21.5625 6.87275 21.5625 7.66666C21.5625 8.46056 22.2061 9.10416 23 9.10416C30.6745 9.10416 36.8958 15.3255 36.8958 23C36.8958 30.6745 30.6745 36.8958 23 36.8958C22.2061 36.8958 21.5625 37.5394 21.5625 38.3333C21.5625 39.1272 22.2061 39.7708 23 39.7708C32.2623 39.7708 39.7708 32.2623 39.7708 23C39.7708 13.7377 32.2623 6.22916 23 6.22916Z" fill="#013089"/>
<path d="M20.0669 18.2665C19.5055 17.7051 19.5055 16.7949 20.0669 16.2335C20.6283 15.6722 21.5383 15.6722 22.0997 16.2335L27.8497 21.9836C28.4111 22.545 28.4111 23.455 27.8497 24.0164L22.0997 29.7664C21.5383 30.3278 20.6283 30.3278 20.0669 29.7664C19.5055 29.205 19.5055 28.295 20.0669 27.7336L23.3628 24.4375H7.66663C6.87272 24.4375 6.22913 23.7939 6.22913 23C6.22913 22.2061 6.87272 21.5625 7.66663 21.5625H23.3628L20.0669 18.2665Z" fill="#013089"/>
</svg>
