<svg width="324" height="102" viewBox="0 0 324 102" fill="none" xmlns="http://www.w3.org/2000/svg">
<path d="M66.6531 95.1017H20.0685C26.7723 99.4836 34.7997 102 43.3395 102C51.922 102 59.9067 99.4402 66.6531 95.1017ZM36.1234 82.9536H7.68582C7.94201 83.3441 8.19821 83.6912 8.4971 84.0817C8.5825 84.1684 8.6679 84.2986 8.75329 84.3854C8.96679 84.6457 9.18028 84.9494 9.39378 85.2097C9.47918 85.2965 9.56458 85.3832 9.60728 85.5134C9.90617 85.8605 10.2051 86.251 10.504 86.598L10.5467 86.6414C10.8455 86.9885 11.1444 87.3356 11.4433 87.6393C11.5287 87.7261 11.6141 87.8128 11.6568 87.8996C11.913 88.1599 12.1692 88.4636 12.4254 88.7239C12.5108 88.7673 12.5535 88.8541 12.6389 88.9409C12.9378 89.2446 13.2794 89.5917 13.5783 89.8954C14.3469 90.6329 15.1154 91.3271 15.9267 92.0213H46.0722C45.0474 91.3705 44.0654 90.6763 43.0833 89.8954H57.174L60.8034 86.2076H76.5593C77.4133 85.1663 78.2246 84.0817 79.0359 82.9536H36.1234ZM29.6331 70.8056H1.87876C1.96415 71.1527 2.09225 71.4998 2.22035 71.8469C2.26305 71.9336 2.30575 72.0638 2.30575 72.1506C2.39114 72.4109 2.47654 72.6712 2.56194 72.9315C2.60464 73.0617 2.64734 73.1484 2.69004 73.2786C2.81813 73.5823 2.94623 73.9294 3.07433 74.2331C3.11703 74.3633 3.15973 74.4934 3.24512 74.6236C3.33052 74.8405 3.41592 75.014 3.45862 75.1876C3.54402 75.3611 3.58672 75.5347 3.67211 75.6648C3.75751 75.8384 3.80021 75.9685 3.88561 76.1421C4.01371 76.4892 4.1845 76.7929 4.3553 77.1399C4.398 77.2267 4.4407 77.3135 4.48339 77.4436C4.86769 78.268 5.29468 79.0923 5.76436 79.8732H33.9884C33.476 79.0923 33.0063 78.268 32.5366 77.4436H57.3875L60.718 74.0595H83.7327C84.1597 72.9749 84.5013 71.8903 84.8429 70.8056H29.6331ZM27.5836 58.6576H0C0 59.1348 0.042699 59.6121 0.042699 60.0893C0.042699 60.2195 0.042699 60.3496 0.085398 60.4798C0.085398 60.8703 0.128097 61.2607 0.170796 61.6512C0.170796 61.738 0.170796 61.8248 0.213495 61.9549C0.256194 62.4322 0.298893 62.9094 0.384291 63.43C0.384291 63.4734 0.384291 63.5168 0.384291 63.5602C0.42699 63.994 0.512388 64.4279 0.555087 64.8618C0.555087 64.9051 0.555087 64.9485 0.555087 64.9919C0.683184 65.903 0.896679 66.8141 1.06747 67.7252H28.7364C28.5229 66.8141 28.3094 65.903 28.1813 64.9919H57.5156L60.5472 61.9115H86.5082C86.5936 60.8269 86.679 59.7422 86.679 58.6576H27.5836ZM85.2699 46.5096H1.45177C1.32367 46.9434 1.23827 47.4207 1.11017 47.8545C1.06747 47.9847 1.06747 48.1148 1.02478 48.245C0.939378 48.5921 0.896679 48.9392 0.811281 49.2863C0.768582 49.4164 0.768582 49.5032 0.725883 49.6333C0.555087 50.5444 0.384291 51.4989 0.298893 52.4534C0.298893 52.4968 0.298893 52.5402 0.298893 52.5836C0.170796 53.5815 0.085398 54.6227 0.042699 55.6206H27.6263C27.669 54.5793 27.797 53.5815 27.9251 52.5836H57.6863L60.4191 49.8069H85.9531C85.7823 48.6789 85.5261 47.5942 85.2699 46.5096ZM80.0179 34.3615H6.70374C6.44755 34.7954 6.19135 35.1859 5.93516 35.6197C5.84976 35.7499 5.80706 35.8801 5.72167 36.0102C5.55087 36.3139 5.38007 36.661 5.20928 36.9647C5.12388 37.0949 5.08118 37.225 4.99578 37.3552C4.82499 37.7023 4.65419 38.0927 4.4407 38.4398C4.398 38.5266 4.3553 38.6134 4.3126 38.7001C4.0991 39.134 3.88561 39.6112 3.71481 40.0451C3.71481 40.0885 3.67211 40.0885 3.67211 40.1319C3.20243 41.2165 2.77543 42.3445 2.39114 43.4726H30.1882C30.6152 42.3445 31.0849 41.2165 31.64 40.1319H57.8571L60.291 37.6589H81.8967C81.2989 36.5308 80.7011 35.4462 80.0179 34.3615ZM22.0754 19.5236H64.6463C58.3695 15.9226 51.1107 13.8401 43.3395 13.8401C35.611 13.8401 28.3521 15.9226 22.0754 19.5236ZM60.1629 25.5108H72.7591C71.5208 24.3394 70.1972 23.2548 68.8308 22.2569H48.7623H17.9336C17.5493 22.5606 17.165 22.8209 16.7807 23.1246C16.6953 23.168 16.6099 23.2548 16.5245 23.2982C16.1829 23.6019 15.7986 23.9056 15.4143 24.2093C15.3716 24.2527 15.3289 24.296 15.2862 24.3394C14.9446 24.5997 14.6031 24.9034 14.3042 25.2071C14.2188 25.2939 14.1761 25.3373 14.1334 25.3807C13.7918 25.6844 13.4502 26.0315 13.0659 26.3786C13.0232 26.4219 12.9805 26.4653 12.9378 26.5521C12.5962 26.8558 12.2546 27.2029 11.913 27.5934C11.913 27.5934 11.913 27.5934 11.8703 27.6367C11.8703 27.6801 11.8276 27.6801 11.8276 27.6801C10.7601 28.8082 9.73537 30.023 8.79599 31.3245H37.447C38.5572 30.023 39.7528 28.8082 41.0337 27.6801H58.0279L60.1629 25.5108ZM108.754 22.0834L118.789 18.8728L108.626 16.7903L105.552 0L102.349 16.7903L73.9974 18.8728L102.478 21.9098L105.552 44.4704L108.754 22.0834ZM128.652 63.8639C127.03 62.302 126.218 60.3496 126.218 58.0502C126.218 55.7507 127.03 53.7984 128.609 52.2799C130.189 50.7614 132.068 50.0238 134.16 50.0238C136.253 50.0238 138.131 50.7614 139.754 52.2799C140.053 52.5836 140.352 52.8873 140.608 53.2344L146.287 42.735C145.347 41.9974 144.365 41.3467 143.298 40.826C140.352 39.3075 137.277 38.57 134.16 38.57C130.958 38.57 127.926 39.3075 124.98 40.826C122.034 42.3445 119.643 44.6006 117.807 47.5508C115.928 50.5444 115.031 54.0153 115.074 58.0502C115.117 62.0417 116.013 65.4692 117.807 68.3326C119.6 71.1961 121.948 73.4088 124.852 74.9273C127.755 76.4458 130.872 77.2701 134.203 77.4003C137.662 77.4436 140.864 76.6627 143.853 75.014C145.219 74.2765 146.5 73.3654 147.61 72.3241L141.419 61.6078C140.992 62.4755 140.48 63.2131 139.754 63.9073C138.131 65.4692 136.253 66.2501 134.203 66.2501C132.111 66.2067 130.275 65.4258 128.652 63.8639ZM176.261 58.0068C176.261 60.3063 175.45 62.2586 173.828 63.8205C172.205 65.3824 170.369 66.1633 168.277 66.1633C166.184 66.1633 164.348 65.3824 162.726 63.8205C161.103 62.2586 160.292 60.3063 160.292 58.0068C160.292 55.7074 161.103 53.755 162.683 52.2365C164.263 50.718 166.142 49.9804 168.234 49.9804C170.326 49.9804 172.205 50.718 173.828 52.2365C175.45 53.755 176.261 55.664 176.261 58.0068ZM185.015 68.0723C186.723 65.1221 187.619 61.738 187.619 58.0068C187.619 53.9719 186.68 50.5011 184.759 47.5074C182.837 44.5138 180.403 42.3011 177.457 40.7826C174.511 39.2641 171.436 38.5266 168.319 38.5266C165.117 38.5266 162.085 39.2641 159.139 40.7826C156.193 42.3011 153.802 44.5572 151.923 47.5074C150.087 50.5011 149.148 53.9719 149.19 58.0068C149.233 61.9983 150.13 65.4258 151.923 68.2892C153.716 71.1527 156.065 73.3654 158.968 74.8839C161.872 76.4024 164.989 77.2267 168.319 77.3569C171.778 77.4003 174.98 76.6193 177.969 74.9706C180.916 73.3654 183.264 71.0659 185.015 68.0723ZM217.978 51.1518L220.797 39.8715H192.53L189.84 51.1518H198.678V76.6193H209.908V51.1518H217.978ZM250.686 51.3688L253.504 39.8715H226.689L223.828 51.3688H226.689V76.6193H248.167L250.985 66.0766H237.705V63.3433H247.74L250.003 54.1889H237.705V51.3688H250.686ZM291.293 76.6193L280.191 57.3126L289.627 39.8715H276.988L271.309 53.1476V39.8715H260.25L257.39 51.4122H260.25V76.6193H271.309V63.8639L277.501 76.6193H291.293ZM316.997 53.191L322.676 42.6916C321.737 41.9541 320.755 41.3033 319.687 40.7826C316.698 39.2641 313.667 38.5266 310.55 38.5266C307.347 38.5266 304.316 39.2641 301.37 40.7826C298.423 42.3011 296.032 44.5572 294.196 47.5074C292.317 50.5011 291.421 53.9719 291.463 58.0068C291.506 61.9983 292.403 65.4258 294.196 68.2892C295.947 71.1527 298.295 73.3654 301.241 74.8839C304.145 76.4024 307.262 77.2267 310.592 77.3569C314.051 77.4003 317.254 76.6193 320.242 74.9706C321.652 74.2331 322.89 73.322 324 72.2807L317.809 61.5644C317.424 62.4322 316.869 63.1697 316.143 63.8639C314.521 65.4258 312.685 66.2067 310.592 66.2067C308.5 66.2067 306.664 65.4258 305.042 63.8639C303.419 62.302 302.608 60.3496 302.608 58.0502C302.608 55.7507 303.419 53.7984 304.999 52.2799C306.579 50.7614 308.458 50.0238 310.55 50.0238C312.642 50.0238 314.521 50.7614 316.143 52.2799C316.485 52.5402 316.741 52.8439 316.997 53.191Z" fill="white"/>
</svg>
