<svg width="23" height="23" viewBox="0 0 23 23" fill="none" xmlns="http://www.w3.org/2000/svg">
<path d="M6.70833 8.625H16.2917M6.70833 12.4583H16.2917M20.125 19.1667L16.9392 17.5737C16.6977 17.453 16.577 17.3926 16.4504 17.3501C16.338 17.3123 16.2224 17.285 16.105 17.2685C15.9727 17.25 15.8377 17.25 15.5677 17.25H5.94167C4.86823 17.25 4.33151 17.25 3.92152 17.0411C3.56087 16.8574 3.26766 16.5641 3.08391 16.2035C2.875 15.7935 2.875 15.2568 2.875 14.1833V6.9C2.875 5.82656 2.875 5.28985 3.08391 4.87986C3.26766 4.51921 3.56087 4.22599 3.92152 4.04224C4.33151 3.83334 4.86824 3.83334 5.94167 3.83334H17.0583C18.1318 3.83334 18.6685 3.83334 19.0785 4.04224C19.4391 4.22599 19.7324 4.51921 19.9161 4.87986C20.125 5.28985 20.125 5.82657 20.125 6.9V19.1667Z" stroke="#36639C" stroke-width="2" stroke-linecap="round" stroke-linejoin="round"/>
</svg>
