<svg width="23" height="21" viewBox="0 0 23 21" fill="none" xmlns="http://www.w3.org/2000/svg">
<path d="M11.5 8.83331V12.1666M9.83977 9.66665L13.1595 11.3333M13.1592 9.66665L9.83948 11.3333" stroke="#36639C" stroke-linecap="round"/>
<path d="M6.4519 8.83331V12.1666M4.79166 9.66665L8.11143 11.3333M8.1112 9.66665L4.79144 11.3333" stroke="#36639C" stroke-linecap="round"/>
<path d="M16.5486 8.83331V12.1666M14.8883 9.66665L18.208 11.3333M18.2078 9.66665L14.8881 11.3333" stroke="#36639C" stroke-linecap="round"/>
<path d="M21.0834 10.5C21.0834 13.6426 21.0834 15.2141 19.9606 16.1903C18.8379 17.1666 17.0308 17.1666 13.4167 17.1666H9.58335C5.96925 17.1666 4.16221 17.1666 3.03944 16.1903C1.91669 15.2141 1.91669 13.6426 1.91669 10.5C1.91669 7.35728 1.91669 5.78594 3.03944 4.80962C4.16221 3.83331 5.96925 3.83331 9.58335 3.83331H13.4167C17.0308 3.83331 18.8379 3.83331 19.9606 4.80962C20.5866 5.35394 20.8635 6.08322 20.9861 7.16665" stroke="#36639C" stroke-width="2" stroke-linecap="round"/>
</svg>
