<svg width="23" height="20" viewBox="0 0 23 20" fill="none" xmlns="http://www.w3.org/2000/svg">
<path d="M21.0834 9.99998C21.0834 13.1426 21.0834 14.7141 19.9606 15.6903C18.8379 16.6666 17.0308 16.6666 13.4167 16.6666H9.58335C5.96925 16.6666 4.16221 16.6666 3.03944 15.6903C1.91669 14.7141 1.91669 13.1426 1.91669 9.99998C1.91669 6.85728 1.91669 5.28594 3.03944 4.30962C4.16221 3.33331 5.96925 3.33331 9.58335 3.33331H13.4167C17.0308 3.33331 18.8379 3.33331 19.9606 4.30962C20.5866 4.85394 20.8635 5.58322 20.9861 6.66665" stroke="#36639C" stroke-width="2" stroke-linecap="round"/>
<path d="M8.62498 10C8.62498 10.4603 8.19591 10.8334 7.66665 10.8334C7.13738 10.8334 6.70831 10.4603 6.70831 10C6.70831 9.53977 7.13738 9.16669 7.66665 9.16669C8.19591 9.16669 8.62498 9.53977 8.62498 10Z" fill="#36639C"/>
<path d="M12.4584 10C12.4584 10.4603 12.0293 10.8334 11.5 10.8334C10.9707 10.8334 10.5417 10.4603 10.5417 10C10.5417 9.53977 10.9707 9.16669 11.5 9.16669C12.0293 9.16669 12.4584 9.53977 12.4584 10Z" fill="#36639C"/>
<path d="M16.2917 10C16.2917 10.4603 15.8626 10.8334 15.3333 10.8334C14.804 10.8334 14.375 10.4603 14.375 10C14.375 9.53977 14.804 9.16669 15.3333 9.16669C15.8626 9.16669 16.2917 9.53977 16.2917 10Z" fill="#36639C"/>
</svg>
