<svg width="30" height="30" viewBox="0 0 30 30" fill="none" xmlns="http://www.w3.org/2000/svg">
<path d="M21.25 9.0625C20.7322 9.0625 20.3125 9.48224 20.3125 10V20C20.3125 20.5177 20.7322 20.9375 21.25 20.9375C21.7678 20.9375 22.1875 20.5177 22.1875 20V10C22.1875 9.48224 21.7678 9.0625 21.25 9.0625Z" fill="#F9F9F9"/>
<path d="M7.8125 15C7.8125 15.5177 8.23225 15.9375 8.75 15.9375H15.2366L13.0871 18.0871C12.721 18.4532 12.721 19.0467 13.0871 19.4129C13.4533 19.779 14.0468 19.779 14.4129 19.4129L18.1629 15.6629C18.3387 15.4871 18.4375 15.2486 18.4375 15C18.4375 14.7514 18.3387 14.5129 18.1629 14.3371L14.4129 10.5871C14.0468 10.221 13.4533 10.221 13.0871 10.5871C12.721 10.9532 12.721 11.5468 13.0871 11.9129L15.2366 14.0625H8.75C8.23225 14.0625 7.8125 14.4822 7.8125 15Z" fill="#F9F9F9"/>
<path fill-rule="evenodd" clip-rule="evenodd" d="M15.5093 2C18.3947 1.99999 20.656 1.99998 22.4204 2.23719C24.2263 2.47999 25.6513 2.98666 26.7698 4.10517C27.8883 5.22369 28.395 6.64871 28.6378 8.45464C28.875 10.219 28.875 12.4803 28.875 15.3657V15.5092C28.875 18.3947 28.875 20.656 28.6378 22.4204C28.395 24.2262 27.8883 25.6514 26.7698 26.7699C25.6513 27.8884 24.2263 28.395 22.4204 28.6379C20.656 28.875 18.3947 28.875 15.5093 28.875H15.3658C12.4803 28.875 10.219 28.875 8.45463 28.6379C6.64875 28.395 5.22363 27.8884 4.10513 26.7699C2.98663 25.6514 2.48 24.2262 2.23713 22.4204C2 20.656 2 18.3947 2 15.5092V15.3657C2 12.4803 2 10.219 2.23713 8.45464C2.48 6.64871 2.98663 5.22369 4.10513 4.10517C5.22363 2.98666 6.64875 2.47999 8.45463 2.23719C10.219 1.99998 12.4803 1.99999 15.3658 2H15.5093ZM25.444 5.431C24.7319 4.71893 23.7685 4.31031 22.1705 4.09546C20.5456 3.87699 18.4103 3.875 15.4375 3.875C12.4648 3.875 10.3295 3.87699 8.7045 4.09546C7.1065 4.31031 6.14313 4.71893 5.431 5.431C4.71888 6.14306 4.31025 7.10646 4.0955 8.70447C3.877 10.3294 3.875 12.4647 3.875 15.4375C3.875 18.4102 3.877 20.5455 4.0955 22.1705C4.31025 23.7685 4.71888 24.7319 5.431 25.444C6.14313 26.1561 7.1065 26.5647 8.7045 26.7795C10.3295 26.998 12.4648 27 15.4375 27C18.4103 27 20.5456 26.998 22.1705 26.7795C23.7685 26.5647 24.7319 26.1561 25.444 25.444C26.1561 24.7319 26.5647 23.7685 26.7795 22.1705C26.998 20.5455 27 18.4102 27 15.4375C27 12.4647 26.998 10.3294 26.7795 8.70447C26.5647 7.10646 26.1561 6.14306 25.444 5.431Z" fill="#F9F9F9"/>
</svg>
